<svg xmlns="http://www.w3.org/2000/svg" viewBox="0 0 240 240" fill="none">
  <circle cx="120" cy="120" r="110" stroke="#56c4ff" stroke-opacity="0.16" stroke-width="1"/>
  <line x1="49.3" y1="190.7" x2="36.6" y2="203.4" stroke="#56c4ff" stroke-opacity="0.9" stroke-width="2"/><line x1="43.9" y1="184.8" x2="36.3" y2="191.3" stroke="#56c4ff" stroke-opacity="0.35" stroke-width="1"/><line x1="38.9" y1="178.6" x2="30.8" y2="184.4" stroke="#56c4ff" stroke-opacity="0.35" stroke-width="1"/><line x1="34.5" y1="171.9" x2="26.0" y2="177.1" stroke="#56c4ff" stroke-opacity="0.35" stroke-width="1"/><line x1="30.7" y1="164.9" x2="21.7" y2="169.4" stroke="#56c4ff" stroke-opacity="0.35" stroke-width="1"/><line x1="27.4" y1="157.7" x2="18.1" y2="161.4" stroke="#56c4ff" stroke-opacity="0.35" stroke-width="1"/><line x1="24.7" y1="150.1" x2="15.1" y2="153.2" stroke="#56c4ff" stroke-opacity="0.35" stroke-width="1"/><line x1="22.5" y1="142.4" x2="12.8" y2="144.7" stroke="#56c4ff" stroke-opacity="0.35" stroke-width="1"/><line x1="21.1" y1="134.6" x2="11.2" y2="136.0" stroke="#56c4ff" stroke-opacity="0.35" stroke-width="1"/><line x1="20.2" y1="126.7" x2="10.2" y2="127.3" stroke="#56c4ff" stroke-opacity="0.35" stroke-width="1"/><line x1="20.0" y1="118.7" x2="2.0" y2="118.4" stroke="#56c4ff" stroke-opacity="0.9" stroke-width="2"/><line x1="20.4" y1="110.7" x2="10.5" y2="109.8" stroke="#56c4ff" stroke-opacity="0.35" stroke-width="1"/><line x1="21.5" y1="102.8" x2="11.6" y2="101.1" stroke="#56c4ff" stroke-opacity="0.35" stroke-width="1"/><line x1="23.2" y1="95.0" x2="13.5" y2="92.5" stroke="#56c4ff" stroke-opacity="0.35" stroke-width="1"/><line x1="25.5" y1="87.3" x2="16.0" y2="84.1" stroke="#56c4ff" stroke-opacity="0.35" stroke-width="1"/><line x1="28.4" y1="79.9" x2="19.2" y2="75.9" stroke="#56c4ff" stroke-opacity="0.35" stroke-width="1"/><line x1="31.9" y1="72.7" x2="23.1" y2="68.0" stroke="#56c4ff" stroke-opacity="0.35" stroke-width="1"/><line x1="35.9" y1="65.8" x2="27.5" y2="60.4" stroke="#56c4ff" stroke-opacity="0.35" stroke-width="1"/><line x1="40.5" y1="59.3" x2="32.6" y2="53.2" stroke="#56c4ff" stroke-opacity="0.35" stroke-width="1"/><line x1="45.6" y1="53.2" x2="38.2" y2="46.5" stroke="#56c4ff" stroke-opacity="0.35" stroke-width="1"/><line x1="51.2" y1="47.4" x2="38.8" y2="34.4" stroke="#56c4ff" stroke-opacity="0.9" stroke-width="2"/><line x1="57.2" y1="42.2" x2="50.9" y2="34.4" stroke="#56c4ff" stroke-opacity="0.35" stroke-width="1"/><line x1="63.6" y1="37.4" x2="58.0" y2="29.2" stroke="#56c4ff" stroke-opacity="0.35" stroke-width="1"/><line x1="70.4" y1="33.2" x2="65.4" y2="24.5" stroke="#56c4ff" stroke-opacity="0.35" stroke-width="1"/><line x1="77.5" y1="29.5" x2="73.2" y2="20.4" stroke="#56c4ff" stroke-opacity="0.35" stroke-width="1"/><line x1="84.8" y1="26.4" x2="81.3" y2="17.0" stroke="#56c4ff" stroke-opacity="0.35" stroke-width="1"/><line x1="92.4" y1="23.9" x2="89.6" y2="14.3" stroke="#56c4ff" stroke-opacity="0.35" stroke-width="1"/><line x1="100.2" y1="22.0" x2="98.2" y2="12.2" stroke="#56c4ff" stroke-opacity="0.35" stroke-width="1"/><line x1="108.0" y1="20.7" x2="106.9" y2="10.8" stroke="#56c4ff" stroke-opacity="0.35" stroke-width="1"/><line x1="116.0" y1="20.1" x2="115.6" y2="10.1" stroke="#56c4ff" stroke-opacity="0.35" stroke-width="1"/><line x1="124.0" y1="20.1" x2="124.7" y2="2.1" stroke="#56c4ff" stroke-opacity="0.9" stroke-width="2"/><line x1="132.0" y1="20.7" x2="133.1" y2="10.8" stroke="#56c4ff" stroke-opacity="0.35" stroke-width="1"/><line x1="139.8" y1="22.0" x2="141.8" y2="12.2" stroke="#56c4ff" stroke-opacity="0.35" stroke-width="1"/><line x1="147.6" y1="23.9" x2="150.4" y2="14.3" stroke="#56c4ff" stroke-opacity="0.35" stroke-width="1"/><line x1="155.2" y1="26.4" x2="158.7" y2="17.0" stroke="#56c4ff" stroke-opacity="0.35" stroke-width="1"/><line x1="162.5" y1="29.5" x2="166.8" y2="20.4" stroke="#56c4ff" stroke-opacity="0.35" stroke-width="1"/><line x1="169.6" y1="33.2" x2="174.6" y2="24.5" stroke="#56c4ff" stroke-opacity="0.35" stroke-width="1"/><line x1="176.4" y1="37.4" x2="182.0" y2="29.2" stroke="#56c4ff" stroke-opacity="0.35" stroke-width="1"/><line x1="182.8" y1="42.2" x2="189.1" y2="34.4" stroke="#56c4ff" stroke-opacity="0.35" stroke-width="1"/><line x1="188.8" y1="47.4" x2="195.7" y2="40.2" stroke="#56c4ff" stroke-opacity="0.35" stroke-width="1"/><line x1="194.4" y1="53.2" x2="207.8" y2="41.1" stroke="#56c4ff" stroke-opacity="0.9" stroke-width="2"/><line x1="199.5" y1="59.3" x2="207.4" y2="53.2" stroke="#56c4ff" stroke-opacity="0.35" stroke-width="1"/><line x1="204.1" y1="65.8" x2="212.5" y2="60.4" stroke="#56c4ff" stroke-opacity="0.35" stroke-width="1"/><line x1="208.1" y1="72.7" x2="216.9" y2="68.0" stroke="#56c4ff" stroke-opacity="0.35" stroke-width="1"/><line x1="211.6" y1="79.9" x2="220.8" y2="75.9" stroke="#56c4ff" stroke-opacity="0.35" stroke-width="1"/><line x1="214.5" y1="87.3" x2="224.0" y2="84.1" stroke="#56c4ff" stroke-opacity="0.35" stroke-width="1"/><line x1="216.8" y1="95.0" x2="226.5" y2="92.5" stroke="#56c4ff" stroke-opacity="0.35" stroke-width="1"/><line x1="218.5" y1="102.8" x2="228.4" y2="101.1" stroke="#56c4ff" stroke-opacity="0.35" stroke-width="1"/><line x1="219.6" y1="110.7" x2="229.5" y2="109.8" stroke="#56c4ff" stroke-opacity="0.35" stroke-width="1"/><line x1="220.0" y1="118.7" x2="230.0" y2="118.5" stroke="#56c4ff" stroke-opacity="0.35" stroke-width="1"/><line x1="219.8" y1="126.7" x2="237.7" y2="127.8" stroke="#56c4ff" stroke-opacity="0.9" stroke-width="2"/><line x1="218.9" y1="134.6" x2="228.8" y2="136.0" stroke="#56c4ff" stroke-opacity="0.35" stroke-width="1"/><line x1="217.5" y1="142.4" x2="227.2" y2="144.7" stroke="#56c4ff" stroke-opacity="0.35" stroke-width="1"/><line x1="215.3" y1="150.1" x2="224.9" y2="153.2" stroke="#56c4ff" stroke-opacity="0.35" stroke-width="1"/><line x1="212.6" y1="157.7" x2="221.9" y2="161.4" stroke="#56c4ff" stroke-opacity="0.35" stroke-width="1"/><line x1="209.3" y1="164.9" x2="218.3" y2="169.4" stroke="#56c4ff" stroke-opacity="0.35" stroke-width="1"/><line x1="205.5" y1="171.9" x2="214.0" y2="177.1" stroke="#56c4ff" stroke-opacity="0.35" stroke-width="1"/><line x1="201.1" y1="178.6" x2="209.2" y2="184.4" stroke="#56c4ff" stroke-opacity="0.35" stroke-width="1"/><line x1="196.1" y1="184.8" x2="203.7" y2="191.3" stroke="#56c4ff" stroke-opacity="0.35" stroke-width="1"/><line x1="190.7" y1="190.7" x2="197.8" y2="197.8" stroke="#56c4ff" stroke-opacity="0.35" stroke-width="1"/>
</svg>